<svg width="225" height="66" viewBox="0 0 225 66" fill="none" xmlns="http://www.w3.org/2000/svg">
<g clip-path="url(#clip0)">
<path d="M37.7206 2.78516H10.7852C3.61742 2.78516 0 6.26448 0 13.1562V50.0404C0 50.9438 0.485216 51.5 1.5306 51.5H9.67277C10.6471 51.5 11.2744 50.9438 11.2744 50.0404V48.64C11.2744 45.2238 12.7142 43.3618 16.2922 43.0028H37.7206C45.5827 43.0028 49.133 39.5944 49.133 32.1466V13.6414C49.133 6.19351 45.5827 2.78516 37.7206 2.78516ZM37.8705 29.0144C37.8705 33.0539 36.9553 33.8863 32.1505 33.8863H20.7381C15.9372 33.8863 12.872 35.4879 11.2704 38.6201V15.8702C11.2704 12.738 12.0357 11.9017 15.8622 11.9017H32.1505C36.9553 11.9017 37.8705 12.738 37.8705 16.7736V29.0144Z" fill="black"/>
<path d="M74.9519 23.1759C68.7587 23.1759 66.1115 26.3081 66.1115 31.5981V50.1783C66.1115 51.0147 65.6932 51.4999 64.719 51.4999H57.3422C56.3676 51.4999 55.8823 51.0147 55.8823 50.1783V16.2172C55.8823 15.3809 56.3676 14.8917 57.3422 14.8917H63.5354C64.4427 14.8917 64.9279 15.3809 64.9279 16.2172V21.6966C66.1115 17.1758 69.5239 14.876 75.5792 14.876H78.0842C78.9873 14.876 79.4726 15.3651 79.4726 16.2014V21.8544C79.4726 22.7578 78.9873 23.1759 78.0842 23.1759H74.9519Z" fill="black"/>
<path d="M122.969 41.5468C122.969 48.4385 119.907 51.4997 112.602 51.4997H94.5068C87.2679 51.4997 84.1355 48.4385 84.1355 41.5468V24.8522C84.1355 17.9645 87.2679 14.8994 94.5068 14.8994H112.602C119.907 14.8994 122.969 17.9645 122.969 24.8522V41.5468ZM112.74 27.4914C112.74 23.87 112.045 23.1757 107.73 23.1757H99.4454C95.063 23.1757 94.3647 23.87 94.3647 27.4914V38.9038C94.3647 42.5212 95.063 43.2194 99.4454 43.2194H107.73C112.045 43.2194 112.74 42.5212 112.74 38.9038V27.4914Z" fill="black"/>
<path d="M133.268 23.1759H129.785C128.878 23.1759 128.393 22.7578 128.393 21.8544V16.2173C128.393 15.3809 128.878 14.8918 129.785 14.8918H133.265V10.371C133.268 3.47935 136.886 0 144.054 0H152.614C153.588 0 154.007 0.48916 154.007 1.32152V6.95872C154.007 7.86603 153.588 8.28021 152.614 8.28021H148.093C144.263 8.28021 143.498 9.11654 143.498 12.2487V14.8918H152.614C153.588 14.8918 154.007 15.3809 154.007 16.2173V21.8544C154.007 22.7578 153.588 23.1759 152.614 23.1759H143.498V50.1784C143.498 51.0147 143.012 51.4999 142.038 51.4999H134.661C133.687 51.4999 133.268 51.0147 133.268 50.1784V23.1759Z" fill="black"/>
<path d="M161.663 23.1759H158.188C157.285 23.1759 156.8 22.7578 156.8 21.8544V16.2173C156.8 15.3809 157.285 14.8918 158.188 14.8918H161.671V10.371C161.664 3.47935 165.289 0 172.448 0H181.009C181.983 0 182.401 0.48916 182.401 1.32152V6.95872C182.401 7.86603 181.983 8.28021 181.009 8.28021H176.484C172.658 8.28021 171.893 9.11654 171.893 12.2487V14.8918H181.009C181.983 14.8918 182.401 15.3809 182.401 16.2173V21.8544C182.401 22.7578 181.983 23.1759 181.009 23.1759H171.893V50.1784C171.893 51.0147 171.403 51.4999 170.429 51.4999H163.052C162.078 51.4999 161.663 51.0147 161.663 50.1784V23.1759Z" fill="black"/>
<path d="M213.507 65.6978H198.335C191.518 65.6978 188.595 63.0549 188.595 56.5102V55.816C188.575 55.6294 188.597 55.4401 188.66 55.2633C188.723 55.086 188.824 54.9253 188.958 54.7931C189.091 54.6609 189.253 54.5603 189.43 54.4992C189.608 54.438 189.797 54.4173 189.984 54.439H197.085C198.059 54.439 198.544 54.9284 198.544 55.8315V56.1789C198.544 57.5714 199.313 58.1277 200.844 58.1277H209.613C213.787 58.1277 214.832 57.0862 214.832 53.5359V42.5574C213.231 45.6896 210.169 47.2912 205.364 47.2912H198.264C191.025 47.2912 187.822 44.23 187.822 37.3384V16.2177C187.812 16.0353 187.842 15.853 187.91 15.6834C187.978 15.5137 188.081 15.3607 188.214 15.2348C188.346 15.1089 188.503 15.0131 188.677 14.954C188.849 14.8948 189.033 14.8738 189.214 14.8922H196.663C197.566 14.8922 198.055 15.3814 198.055 16.2177V34.715C198.055 38.3325 198.82 39.0307 203.136 39.0307H208.426C213.018 39.0307 214.828 37.149 214.828 33.3225V16.2177C214.828 15.3814 215.314 14.8922 216.221 14.8922H223.672C223.851 14.875 224.031 14.8975 224.199 14.9581C224.368 15.0187 224.521 15.1158 224.647 15.2426C224.773 15.3693 224.87 15.5225 224.93 15.6911C224.99 15.8597 225.012 16.0396 224.994 16.2177V54.6324C224.99 61.9345 221.093 65.6978 213.507 65.6978Z" fill="black"/>
</g>
<defs>
<clipPath id="clip0">
<rect width="225" height="65.841" fill="white"/>
</clipPath>
</defs>
</svg>
